<?xml version="1.0" encoding="UTF-8" standalone="no"?>
<!DOCTYPE svg PUBLIC "-//W3C//DTD SVG 1.1//EN"
 "http://www.w3.org/Graphics/SVG/1.1/DTD/svg11.dtd">
<!-- Generated by graphviz version 2.47.0 (20210316.0004)
 -->
<!-- Title: dependencies Pages: 1 -->
<svg width="570pt" height="211pt"
 viewBox="0.00 0.00 570.00 211.00" xmlns="http://www.w3.org/2000/svg" xmlns:xlink="http://www.w3.org/1999/xlink">
<g id="graph0" class="graph" transform="scale(1 1) rotate(0) translate(4 207)">
<title>dependencies</title>
<polygon fill="white" stroke="transparent" points="-4,4 -4,-207 566,-207 566,4 -4,4"/>
<text text-anchor="start" x="260.01" y="-42.4" font-family="Times-12" font-weight="bold" font-size="14.00">Legend</text>
<polygon fill="#ffffb3" stroke="transparent" points="47,-10 47,-30 67,-30 67,-10 47,-10"/>
<text text-anchor="start" x="70.63" y="-15.4" font-family="Times-12" font-size="14.00"> &#160;Declarations</text>
<polygon fill="#8dd3c7" stroke="transparent" points="160,-10 160,-30 180,-30 180,-10 160,-10"/>
<text text-anchor="start" x="183.73" y="-15.4" font-family="Times-12" font-size="14.00"> &#160;Module</text>
<polygon fill="#80b1d3" stroke="transparent" points="246,-10 246,-30 266,-30 266,-10 246,-10"/>
<text text-anchor="start" x="269.78" y="-15.4" font-family="Times-12" font-size="14.00"> &#160;Bootstrap</text>
<polygon fill="#fdb462" stroke="transparent" points="343,-10 343,-30 363,-30 363,-10 343,-10"/>
<text text-anchor="start" x="366.67" y="-15.4" font-family="Times-12" font-size="14.00"> &#160;Providers</text>
<polygon fill="#fb8072" stroke="transparent" points="439,-10 439,-30 459,-30 459,-10 439,-10"/>
<text text-anchor="start" x="462.73" y="-15.4" font-family="Times-12" font-size="14.00"> &#160;Exports</text>
<g id="clust1" class="cluster">
<title>cluster_DepartmentResultPageModule</title>
<polygon fill="none" stroke="black" stroke-dasharray="1,5" points="8,-70 8,-195 554,-195 554,-70 8,-70"/>
</g>
<g id="clust4" class="cluster">
<title>cluster_DepartmentResultPageModule_imports</title>
<polygon fill="none" stroke="black" points="186,-78 186,-130 546,-130 546,-78 186,-78"/>
</g>
<g id="clust2" class="cluster">
<title>cluster_DepartmentResultPageModule_declarations</title>
<polygon fill="none" stroke="black" points="16,-78 16,-130 178,-130 178,-78 16,-78"/>
</g>
<!-- DepartmentResultPage -->
<g id="node1" class="node">
<title>DepartmentResultPage</title>
<polygon fill="#ffffb3" stroke="black" points="169.57,-122 24.43,-122 24.43,-86 169.57,-86 169.57,-122"/>
<text text-anchor="middle" x="97" y="-99.8" font-family="Times,serif" font-size="14.00">DepartmentResultPage</text>
</g>
<!-- DepartmentResultPageModule -->
<g id="node2" class="node">
<title>DepartmentResultPageModule</title>
<polygon fill="#8dd3c7" stroke="black" points="334.12,-187 331.12,-191 310.12,-191 307.12,-187 145.88,-187 145.88,-151 334.12,-151 334.12,-187"/>
<text text-anchor="middle" x="240" y="-164.8" font-family="Times,serif" font-size="14.00">DepartmentResultPageModule</text>
</g>
<!-- DepartmentResultPage&#45;&gt;DepartmentResultPageModule -->
<g id="edge1" class="edge">
<title>DepartmentResultPage&#45;&gt;DepartmentResultPageModule</title>
<path fill="none" stroke="black" d="M157.61,-122.11C157.61,-122.11 157.61,-140.99 157.61,-140.99"/>
<polygon fill="black" stroke="black" points="154.11,-140.99 157.61,-150.99 161.11,-140.99 154.11,-140.99"/>
</g>
<!-- DepartmentResultPageRoutingModule -->
<g id="node3" class="node">
<title>DepartmentResultPageRoutingModule</title>
<polygon fill="#8dd3c7" stroke="black" points="537.74,-122 534.74,-126 513.74,-126 510.74,-122 304.26,-122 304.26,-86 537.74,-86 537.74,-122"/>
<text text-anchor="middle" x="421" y="-99.8" font-family="Times,serif" font-size="14.00">DepartmentResultPageRoutingModule</text>
</g>
<!-- DepartmentResultPageRoutingModule&#45;&gt;DepartmentResultPageModule -->
<g id="edge2" class="edge">
<title>DepartmentResultPageRoutingModule&#45;&gt;DepartmentResultPageModule</title>
<path fill="none" stroke="black" d="M319.22,-122.11C319.22,-122.11 319.22,-140.99 319.22,-140.99"/>
<polygon fill="black" stroke="black" points="315.72,-140.99 319.22,-150.99 322.72,-140.99 315.72,-140.99"/>
</g>
<!-- ShareModule -->
<g id="node4" class="node">
<title>ShareModule</title>
<polygon fill="#8dd3c7" stroke="black" points="285.92,-122 282.92,-126 261.92,-126 258.92,-122 194.08,-122 194.08,-86 285.92,-86 285.92,-122"/>
<text text-anchor="middle" x="240" y="-99.8" font-family="Times,serif" font-size="14.00">ShareModule</text>
</g>
<!-- ShareModule&#45;&gt;DepartmentResultPageModule -->
<g id="edge3" class="edge">
<title>ShareModule&#45;&gt;DepartmentResultPageModule</title>
<path fill="none" stroke="black" d="M240,-122.11C240,-122.11 240,-140.99 240,-140.99"/>
<polygon fill="black" stroke="black" points="236.5,-140.99 240,-150.99 243.5,-140.99 236.5,-140.99"/>
</g>
</g>
</svg>
