<?xml version="1.0" encoding="UTF-8" standalone="no"?>
<!DOCTYPE svg PUBLIC "-//W3C//DTD SVG 1.1//EN"
 "http://www.w3.org/Graphics/SVG/1.1/DTD/svg11.dtd">
<!-- Generated by graphviz version 2.47.0 (20210316.0004)
 -->
<!-- Title: dependencies Pages: 1 -->
<svg width="864pt" height="284pt"
 viewBox="0.00 0.00 864.00 284.00" xmlns="http://www.w3.org/2000/svg" xmlns:xlink="http://www.w3.org/1999/xlink">
<g id="graph0" class="graph" transform="scale(1 1) rotate(0) translate(4 280)">
<title>dependencies</title>
<polygon fill="white" stroke="transparent" points="-4,4 -4,-280 860,-280 860,4 -4,4"/>
<text text-anchor="start" x="407.01" y="-42.4" font-family="Times-12" font-weight="bold" font-size="14.00">Legend</text>
<polygon fill="#ffffb3" stroke="transparent" points="194,-10 194,-30 214,-30 214,-10 194,-10"/>
<text text-anchor="start" x="217.63" y="-15.4" font-family="Times-12" font-size="14.00"> &#160;Declarations</text>
<polygon fill="#8dd3c7" stroke="transparent" points="307,-10 307,-30 327,-30 327,-10 307,-10"/>
<text text-anchor="start" x="330.73" y="-15.4" font-family="Times-12" font-size="14.00"> &#160;Module</text>
<polygon fill="#80b1d3" stroke="transparent" points="393,-10 393,-30 413,-30 413,-10 393,-10"/>
<text text-anchor="start" x="416.78" y="-15.4" font-family="Times-12" font-size="14.00"> &#160;Bootstrap</text>
<polygon fill="#fdb462" stroke="transparent" points="490,-10 490,-30 510,-30 510,-10 490,-10"/>
<text text-anchor="start" x="513.67" y="-15.4" font-family="Times-12" font-size="14.00"> &#160;Providers</text>
<polygon fill="#fb8072" stroke="transparent" points="586,-10 586,-30 606,-30 606,-10 586,-10"/>
<text text-anchor="start" x="609.73" y="-15.4" font-family="Times-12" font-size="14.00"> &#160;Exports</text>
<g id="clust1" class="cluster">
<title>cluster_ShareModule</title>
<polygon fill="none" stroke="black" stroke-dasharray="1,5" points="8,-70 8,-268 848,-268 848,-70 8,-70"/>
</g>
<g id="clust2" class="cluster">
<title>cluster_ShareModule_declarations</title>
<polygon fill="none" stroke="black" points="25,-78 25,-130 832,-130 832,-78 25,-78"/>
</g>
<g id="clust9" class="cluster">
<title>cluster_ShareModule_exports</title>
<polygon fill="none" stroke="black" points="16,-208 16,-260 840,-260 840,-208 16,-208"/>
</g>
<!-- CheckoutIconComponent -->
<g id="node1" class="node">
<title>CheckoutIconComponent</title>
<polygon fill="#ffffb3" stroke="black" points="823.86,-122 664.14,-122 664.14,-86 823.86,-86 823.86,-122"/>
<text text-anchor="middle" x="744" y="-99.8" font-family="Times,serif" font-size="14.00">CheckoutIconComponent</text>
</g>
<!-- ShareModule -->
<g id="node6" class="node">
<title>ShareModule</title>
<polygon fill="#8dd3c7" stroke="black" points="477.92,-187 474.92,-191 453.92,-191 450.92,-187 386.08,-187 386.08,-151 477.92,-151 477.92,-187"/>
<text text-anchor="middle" x="432" y="-164.8" font-family="Times,serif" font-size="14.00">ShareModule</text>
</g>
<!-- CheckoutIconComponent&#45;&gt;ShareModule -->
<g id="edge1" class="edge">
<title>CheckoutIconComponent&#45;&gt;ShareModule</title>
<path fill="none" stroke="black" d="M772.06,-122.27C772.06,-140.56 772.06,-166 772.06,-166 772.06,-166 487.86,-166 487.86,-166"/>
<polygon fill="black" stroke="black" points="487.86,-162.5 477.86,-166 487.86,-169.5 487.86,-162.5"/>
</g>
<!-- NewsComponent -->
<g id="node2" class="node">
<title>NewsComponent</title>
<polygon fill="#ffffb3" stroke="black" points="645.7,-122 532.3,-122 532.3,-86 645.7,-86 645.7,-122"/>
<text text-anchor="middle" x="589" y="-99.8" font-family="Times,serif" font-size="14.00">NewsComponent</text>
</g>
<!-- NewsComponent&#45;&gt;ShareModule -->
<g id="edge2" class="edge">
<title>NewsComponent&#45;&gt;ShareModule</title>
<path fill="none" stroke="black" d="M608.28,-122.01C608.28,-138.05 608.28,-159 608.28,-159 608.28,-159 487.86,-159 487.86,-159"/>
<polygon fill="black" stroke="black" points="487.86,-155.5 477.86,-159 487.86,-162.5 487.86,-155.5"/>
</g>
<!-- ProductDetailsComponent -->
<g id="node3" class="node">
<title>ProductDetailsComponent</title>
<polygon fill="#ffffb3" stroke="black" points="514.03,-122 349.97,-122 349.97,-86 514.03,-86 514.03,-122"/>
<text text-anchor="middle" x="432" y="-99.8" font-family="Times,serif" font-size="14.00">ProductDetailsComponent</text>
</g>
<!-- ProductDetailsComponent&#45;&gt;ShareModule -->
<g id="edge3" class="edge">
<title>ProductDetailsComponent&#45;&gt;ShareModule</title>
<path fill="none" stroke="black" d="M432,-122.11C432,-122.11 432,-140.99 432,-140.99"/>
<polygon fill="black" stroke="black" points="428.5,-140.99 432,-150.99 435.5,-140.99 428.5,-140.99"/>
</g>
<!-- ProductListComponent -->
<g id="node4" class="node">
<title>ProductListComponent</title>
<polygon fill="#ffffb3" stroke="black" points="331.16,-122 184.84,-122 184.84,-86 331.16,-86 331.16,-122"/>
<text text-anchor="middle" x="258" y="-99.8" font-family="Times,serif" font-size="14.00">ProductListComponent</text>
</g>
<!-- ProductListComponent&#45;&gt;ShareModule -->
<g id="edge4" class="edge">
<title>ProductListComponent&#45;&gt;ShareModule</title>
<path fill="none" stroke="black" d="M281.61,-122.01C281.61,-138.05 281.61,-159 281.61,-159 281.61,-159 376.06,-159 376.06,-159"/>
<polygon fill="black" stroke="black" points="376.06,-162.5 386.06,-159 376.06,-155.5 376.06,-162.5"/>
</g>
<!-- TabmenuComponent -->
<g id="node5" class="node">
<title>TabmenuComponent</title>
<polygon fill="#ffffb3" stroke="black" points="167.2,-122 32.8,-122 32.8,-86 167.2,-86 167.2,-122"/>
<text text-anchor="middle" x="100" y="-99.8" font-family="Times,serif" font-size="14.00">TabmenuComponent</text>
</g>
<!-- TabmenuComponent&#45;&gt;ShareModule -->
<g id="edge5" class="edge">
<title>TabmenuComponent&#45;&gt;ShareModule</title>
<path fill="none" stroke="black" d="M118.87,-122.27C118.87,-140.56 118.87,-166 118.87,-166 118.87,-166 376.13,-166 376.13,-166"/>
<polygon fill="black" stroke="black" points="376.13,-169.5 386.13,-166 376.13,-162.5 376.13,-169.5"/>
</g>
<!-- CheckoutIconComponent  -->
<g id="node7" class="node">
<title>CheckoutIconComponent </title>
<polygon fill="#fb8072" stroke="black" points="831.86,-252 668.14,-252 668.14,-216 831.86,-216 831.86,-252"/>
<text text-anchor="middle" x="750" y="-229.8" font-family="Times,serif" font-size="14.00">CheckoutIconComponent </text>
</g>
<!-- ShareModule&#45;&gt;CheckoutIconComponent  -->
<g id="edge6" class="edge">
<title>ShareModule&#45;&gt;CheckoutIconComponent </title>
<path fill="none" stroke="black" stroke-dasharray="5,2" d="M477.98,-173C559.35,-173 720.19,-173 720.19,-173 720.19,-173 720.19,-205.7 720.19,-205.7"/>
<polygon fill="black" stroke="black" points="716.69,-205.7 720.19,-215.7 723.69,-205.7 716.69,-205.7"/>
</g>
<!-- NewsComponent  -->
<g id="node8" class="node">
<title>NewsComponent </title>
<polygon fill="#fb8072" stroke="black" points="650.21,-252 533.79,-252 533.79,-216 650.21,-216 650.21,-252"/>
<text text-anchor="middle" x="592" y="-229.8" font-family="Times,serif" font-size="14.00">NewsComponent </text>
</g>
<!-- ShareModule&#45;&gt;NewsComponent  -->
<g id="edge7" class="edge">
<title>ShareModule&#45;&gt;NewsComponent </title>
<path fill="none" stroke="black" stroke-dasharray="5,2" d="M477.89,-180C518.37,-180 570.97,-180 570.97,-180 570.97,-180 570.97,-205.72 570.97,-205.72"/>
<polygon fill="black" stroke="black" points="567.47,-205.72 570.97,-215.72 574.47,-205.72 567.47,-205.72"/>
</g>
<!-- ProductDetailsComponent  -->
<g id="node9" class="node">
<title>ProductDetailsComponent </title>
<polygon fill="#fb8072" stroke="black" points="516.03,-252 347.97,-252 347.97,-216 516.03,-216 516.03,-252"/>
<text text-anchor="middle" x="432" y="-229.8" font-family="Times,serif" font-size="14.00">ProductDetailsComponent </text>
</g>
<!-- ShareModule&#45;&gt;ProductDetailsComponent  -->
<g id="edge8" class="edge">
<title>ShareModule&#45;&gt;ProductDetailsComponent </title>
<path fill="none" stroke="black" stroke-dasharray="5,2" d="M432,-187.11C432,-187.11 432,-205.99 432,-205.99"/>
<polygon fill="black" stroke="black" points="428.5,-205.99 432,-215.99 435.5,-205.99 428.5,-205.99"/>
</g>
<!-- ProductListComponent  -->
<g id="node10" class="node">
<title>ProductListComponent </title>
<polygon fill="#fb8072" stroke="black" points="330.16,-252 179.84,-252 179.84,-216 330.16,-216 330.16,-252"/>
<text text-anchor="middle" x="255" y="-229.8" font-family="Times,serif" font-size="14.00">ProductListComponent </text>
</g>
<!-- ShareModule&#45;&gt;ProductListComponent  -->
<g id="edge9" class="edge">
<title>ShareModule&#45;&gt;ProductListComponent </title>
<path fill="none" stroke="black" stroke-dasharray="5,2" d="M385.88,-180C327.13,-180 233.14,-180 233.14,-180 233.14,-180 233.14,-205.72 233.14,-205.72"/>
<polygon fill="black" stroke="black" points="229.64,-205.72 233.14,-215.72 236.64,-205.72 229.64,-205.72"/>
</g>
<!-- TabmenuComponent  -->
<g id="node11" class="node">
<title>TabmenuComponent </title>
<polygon fill="#fb8072" stroke="black" points="161.71,-252 24.29,-252 24.29,-216 161.71,-216 161.71,-252"/>
<text text-anchor="middle" x="93" y="-229.8" font-family="Times,serif" font-size="14.00">TabmenuComponent </text>
</g>
<!-- ShareModule&#45;&gt;TabmenuComponent  -->
<g id="edge10" class="edge">
<title>ShareModule&#45;&gt;TabmenuComponent </title>
<path fill="none" stroke="black" stroke-dasharray="5,2" d="M386.17,-173C289.99,-173 75.88,-173 75.88,-173 75.88,-173 75.88,-205.7 75.88,-205.7"/>
<polygon fill="black" stroke="black" points="72.38,-205.7 75.88,-215.7 79.38,-205.7 72.38,-205.7"/>
</g>
</g>
</svg>
