<?xml version="1.0" encoding="UTF-8" standalone="no"?>
<!DOCTYPE svg PUBLIC "-//W3C//DTD SVG 1.1//EN"
 "http://www.w3.org/Graphics/SVG/1.1/DTD/svg11.dtd">
<!-- Generated by graphviz version 2.47.0 (20210316.0004)
 -->
<!-- Title: dependencies Pages: 1 -->
<svg width="5708pt" height="290pt"
 viewBox="0.00 0.00 5708.00 290.00" xmlns="http://www.w3.org/2000/svg" xmlns:xlink="http://www.w3.org/1999/xlink">
<g id="graph0" class="graph" transform="scale(1 1) rotate(0) translate(4 286)">
<title>dependencies</title>
<polygon fill="white" stroke="transparent" points="-4,4 -4,-286 5704,-286 5704,4 -4,4"/>
<text text-anchor="start" x="2829.01" y="-42.4" font-family="Times-12" font-weight="bold" font-size="14.00">Legend</text>
<polygon fill="#ffffb3" stroke="transparent" points="2616,-10 2616,-30 2636,-30 2636,-10 2616,-10"/>
<text text-anchor="start" x="2639.63" y="-15.4" font-family="Times-12" font-size="14.00"> &#160;Declarations</text>
<polygon fill="#8dd3c7" stroke="transparent" points="2729,-10 2729,-30 2749,-30 2749,-10 2729,-10"/>
<text text-anchor="start" x="2752.73" y="-15.4" font-family="Times-12" font-size="14.00"> &#160;Module</text>
<polygon fill="#80b1d3" stroke="transparent" points="2815,-10 2815,-30 2835,-30 2835,-10 2815,-10"/>
<text text-anchor="start" x="2838.78" y="-15.4" font-family="Times-12" font-size="14.00"> &#160;Bootstrap</text>
<polygon fill="#fdb462" stroke="transparent" points="2912,-10 2912,-30 2932,-30 2932,-10 2912,-10"/>
<text text-anchor="start" x="2935.67" y="-15.4" font-family="Times-12" font-size="14.00"> &#160;Providers</text>
<polygon fill="#fb8072" stroke="transparent" points="3008,-10 3008,-30 3028,-30 3028,-10 3008,-10"/>
<text text-anchor="start" x="3031.73" y="-15.4" font-family="Times-12" font-size="14.00"> &#160;Exports</text>
<g id="clust1" class="cluster">
<title>cluster_AccountPageModule</title>
<polygon fill="none" stroke="black" stroke-dasharray="1,5" points="8,-70 8,-198 334,-198 334,-70 8,-70"/>
</g>
<g id="clust2" class="cluster">
<title>cluster_AccountPageModule_declarations</title>
<polygon fill="none" stroke="black" points="220,-78 220,-130 326,-130 326,-78 220,-78"/>
</g>
<g id="clust4" class="cluster">
<title>cluster_AccountPageModule_imports</title>
<polygon fill="none" stroke="black" points="16,-78 16,-130 212,-130 212,-78 16,-78"/>
</g>
<g id="clust14" class="cluster">
<title>cluster_AppModule</title>
<polygon fill="none" stroke="black" stroke-dasharray="1,5" points="2004,-70 2004,-274 2404,-274 2404,-70 2004,-70"/>
</g>
<g id="clust15" class="cluster">
<title>cluster_AppModule_declarations</title>
<polygon fill="none" stroke="black" points="2274,-78 2274,-130 2396,-130 2396,-78 2274,-78"/>
</g>
<g id="clust17" class="cluster">
<title>cluster_AppModule_imports</title>
<polygon fill="none" stroke="black" points="2012,-78 2012,-130 2266,-130 2266,-78 2012,-78"/>
</g>
<g id="clust19" class="cluster">
<title>cluster_AppModule_bootstrap</title>
<polygon fill="none" stroke="black" points="2132,-214 2132,-266 2256,-266 2256,-214 2132,-214"/>
</g>
<g id="clust27" class="cluster">
<title>cluster_DepartmentPageModule</title>
<polygon fill="none" stroke="black" stroke-dasharray="1,5" points="3566,-70 3566,-198 3930,-198 3930,-70 3566,-70"/>
</g>
<g id="clust28" class="cluster">
<title>cluster_DepartmentPageModule_declarations</title>
<polygon fill="none" stroke="black" points="3796,-78 3796,-130 3922,-130 3922,-78 3796,-78"/>
</g>
<g id="clust30" class="cluster">
<title>cluster_DepartmentPageModule_imports</title>
<polygon fill="none" stroke="black" points="3574,-78 3574,-130 3788,-130 3788,-78 3574,-78"/>
</g>
<g id="clust40" class="cluster">
<title>cluster_DepartmentResultPageModule</title>
<polygon fill="none" stroke="black" stroke-dasharray="1,5" points="2412,-70 2412,-198 2848,-198 2848,-70 2412,-70"/>
</g>
<g id="clust41" class="cluster">
<title>cluster_DepartmentResultPageModule_declarations</title>
<polygon fill="none" stroke="black" points="2678,-78 2678,-130 2840,-130 2840,-78 2678,-78"/>
</g>
<g id="clust43" class="cluster">
<title>cluster_DepartmentResultPageModule_imports</title>
<polygon fill="none" stroke="black" points="2420,-78 2420,-130 2670,-130 2670,-78 2420,-78"/>
</g>
<g id="clust53" class="cluster">
<title>cluster_ForgotPasswordPageModule</title>
<polygon fill="none" stroke="black" stroke-dasharray="1,5" points="3938,-70 3938,-198 4350,-198 4350,-70 3938,-70"/>
</g>
<g id="clust54" class="cluster">
<title>cluster_ForgotPasswordPageModule_declarations</title>
<polygon fill="none" stroke="black" points="4192,-78 4192,-130 4342,-130 4342,-78 4192,-78"/>
</g>
<g id="clust56" class="cluster">
<title>cluster_ForgotPasswordPageModule_imports</title>
<polygon fill="none" stroke="black" points="3946,-78 3946,-130 4184,-130 4184,-78 3946,-78"/>
</g>
<g id="clust66" class="cluster">
<title>cluster_HomePageModule</title>
<polygon fill="none" stroke="black" stroke-dasharray="1,5" points="2856,-70 2856,-198 3156,-198 3156,-70 2856,-70"/>
</g>
<g id="clust67" class="cluster">
<title>cluster_HomePageModule_declarations</title>
<polygon fill="none" stroke="black" points="3054,-78 3054,-130 3148,-130 3148,-78 3054,-78"/>
</g>
<g id="clust69" class="cluster">
<title>cluster_HomePageModule_imports</title>
<polygon fill="none" stroke="black" points="2864,-78 2864,-130 3046,-130 3046,-78 2864,-78"/>
</g>
<g id="clust79" class="cluster">
<title>cluster_LogInPageModule</title>
<polygon fill="none" stroke="black" stroke-dasharray="1,5" points="4358,-70 4358,-198 4658,-198 4658,-70 4358,-70"/>
</g>
<g id="clust80" class="cluster">
<title>cluster_LogInPageModule_declarations</title>
<polygon fill="none" stroke="black" points="4556,-78 4556,-130 4650,-130 4650,-78 4556,-78"/>
</g>
<g id="clust82" class="cluster">
<title>cluster_LogInPageModule_imports</title>
<polygon fill="none" stroke="black" points="4366,-78 4366,-130 4548,-130 4548,-78 4366,-78"/>
</g>
<g id="clust92" class="cluster">
<title>cluster_ProfilePageModule</title>
<polygon fill="none" stroke="black" stroke-dasharray="1,5" points="4666,-70 4666,-198 4974,-198 4974,-70 4666,-70"/>
</g>
<g id="clust93" class="cluster">
<title>cluster_ProfilePageModule_declarations</title>
<polygon fill="none" stroke="black" points="4868,-78 4868,-130 4966,-130 4966,-78 4868,-78"/>
</g>
<g id="clust95" class="cluster">
<title>cluster_ProfilePageModule_imports</title>
<polygon fill="none" stroke="black" points="4674,-78 4674,-130 4860,-130 4860,-78 4674,-78"/>
</g>
<g id="clust105" class="cluster">
<title>cluster_SearchProductPageModule</title>
<polygon fill="none" stroke="black" stroke-dasharray="1,5" points="3164,-70 3164,-198 3558,-198 3558,-70 3164,-70"/>
</g>
<g id="clust106" class="cluster">
<title>cluster_SearchProductPageModule_declarations</title>
<polygon fill="none" stroke="black" points="3410,-78 3410,-130 3550,-130 3550,-78 3410,-78"/>
</g>
<g id="clust108" class="cluster">
<title>cluster_SearchProductPageModule_imports</title>
<polygon fill="none" stroke="black" points="3172,-78 3172,-130 3402,-130 3402,-78 3172,-78"/>
</g>
<g id="clust118" class="cluster">
<title>cluster_ShareModule</title>
<polygon fill="none" stroke="black" stroke-dasharray="1,5" points="342,-138 342,-206 1996,-206 1996,-138 342,-138"/>
</g>
<g id="clust119" class="cluster">
<title>cluster_ShareModule_declarations</title>
<polygon fill="none" stroke="black" points="1182,-146 1182,-198 1988,-198 1988,-146 1182,-146"/>
</g>
<g id="clust126" class="cluster">
<title>cluster_ShareModule_exports</title>
<polygon fill="none" stroke="black" points="350,-146 350,-198 1174,-198 1174,-146 350,-146"/>
</g>
<g id="clust129" class="cluster">
<title>cluster_ShoppingCartPageModule</title>
<polygon fill="none" stroke="black" stroke-dasharray="1,5" points="4982,-70 4982,-198 5368,-198 5368,-70 4982,-70"/>
</g>
<g id="clust130" class="cluster">
<title>cluster_ShoppingCartPageModule_declarations</title>
<polygon fill="none" stroke="black" points="5224,-78 5224,-130 5360,-130 5360,-78 5224,-78"/>
</g>
<g id="clust132" class="cluster">
<title>cluster_ShoppingCartPageModule_imports</title>
<polygon fill="none" stroke="black" points="4990,-78 4990,-130 5216,-130 5216,-78 4990,-78"/>
</g>
<g id="clust142" class="cluster">
<title>cluster_SignUpPageModule</title>
<polygon fill="none" stroke="black" stroke-dasharray="1,5" points="5376,-70 5376,-198 5692,-198 5692,-70 5376,-70"/>
</g>
<g id="clust143" class="cluster">
<title>cluster_SignUpPageModule_declarations</title>
<polygon fill="none" stroke="black" points="5582,-78 5582,-130 5684,-130 5684,-78 5582,-78"/>
</g>
<g id="clust145" class="cluster">
<title>cluster_SignUpPageModule_imports</title>
<polygon fill="none" stroke="black" points="5384,-78 5384,-130 5574,-130 5574,-78 5384,-78"/>
</g>
<!-- AccountPage -->
<g id="node1" class="node">
<title>AccountPage</title>
<polygon fill="#ffffb3" stroke="black" points="318.14,-122 227.86,-122 227.86,-86 318.14,-86 318.14,-122"/>
<text text-anchor="middle" x="273" y="-99.8" font-family="Times,serif" font-size="14.00">AccountPage</text>
</g>
<!-- AccountPageModule -->
<g id="node2" class="node">
<title>AccountPageModule</title>
<polygon fill="#8dd3c7" stroke="black" points="253.19,-190 250.19,-194 229.19,-194 226.19,-190 118.81,-190 118.81,-154 253.19,-154 253.19,-190"/>
<text text-anchor="middle" x="186" y="-167.8" font-family="Times,serif" font-size="14.00">AccountPageModule</text>
</g>
<!-- AccountPage&#45;&gt;AccountPageModule -->
<g id="edge1" class="edge">
<title>AccountPage&#45;&gt;AccountPageModule</title>
<path fill="none" stroke="black" d="M240.39,-122.22C240.39,-122.22 240.39,-143.73 240.39,-143.73"/>
<polygon fill="black" stroke="black" points="236.89,-143.73 240.39,-153.73 243.89,-143.73 236.89,-143.73"/>
</g>
<!-- AccountPageRoutingModule -->
<g id="node3" class="node">
<title>AccountPageRoutingModule</title>
<polygon fill="#8dd3c7" stroke="black" points="203.81,-122 200.81,-126 179.81,-126 176.81,-122 24.19,-122 24.19,-86 203.81,-86 203.81,-122"/>
<text text-anchor="middle" x="114" y="-99.8" font-family="Times,serif" font-size="14.00">AccountPageRoutingModule</text>
</g>
<!-- AccountPageRoutingModule&#45;&gt;AccountPageModule -->
<g id="edge2" class="edge">
<title>AccountPageRoutingModule&#45;&gt;AccountPageModule</title>
<path fill="none" stroke="black" d="M161.28,-122.22C161.28,-122.22 161.28,-143.73 161.28,-143.73"/>
<polygon fill="black" stroke="black" points="157.78,-143.73 161.28,-153.73 164.78,-143.73 157.78,-143.73"/>
</g>
<!-- AppComponent -->
<g id="node4" class="node">
<title>AppComponent</title>
<polygon fill="#ffffb3" stroke="black" points="2387.94,-122 2282.06,-122 2282.06,-86 2387.94,-86 2387.94,-122"/>
<text text-anchor="middle" x="2335" y="-99.8" font-family="Times,serif" font-size="14.00">AppComponent</text>
</g>
<!-- AppModule -->
<g id="node5" class="node">
<title>AppModule</title>
<polygon fill="#8dd3c7" stroke="black" points="2235.66,-190 2232.66,-194 2211.66,-194 2208.66,-190 2152.34,-190 2152.34,-154 2235.66,-154 2235.66,-190"/>
<text text-anchor="middle" x="2194" y="-167.8" font-family="Times,serif" font-size="14.00">AppModule</text>
</g>
<!-- AppComponent&#45;&gt;AppModule -->
<g id="edge3" class="edge">
<title>AppComponent&#45;&gt;AppModule</title>
<path fill="none" stroke="black" d="M2335,-122.22C2335,-142.37 2335,-172 2335,-172 2335,-172 2245.92,-172 2245.92,-172"/>
<polygon fill="black" stroke="black" points="2245.92,-168.5 2235.92,-172 2245.92,-175.5 2245.92,-168.5"/>
</g>
<!-- AppComponent  -->
<g id="node8" class="node">
<title>AppComponent </title>
<polygon fill="#80b1d3" stroke="black" points="2248.44,-258 2139.56,-258 2139.56,-222 2248.44,-222 2248.44,-258"/>
<text text-anchor="middle" x="2194" y="-235.8" font-family="Times,serif" font-size="14.00">AppComponent </text>
</g>
<!-- AppModule&#45;&gt;AppComponent  -->
<g id="edge6" class="edge">
<title>AppModule&#45;&gt;AppComponent </title>
<path fill="none" stroke="black" stroke-dasharray="1,5" d="M2194,-190.22C2194,-190.22 2194,-211.73 2194,-211.73"/>
<polygon fill="black" stroke="black" points="2190.5,-211.73 2194,-221.73 2197.5,-211.73 2190.5,-211.73"/>
</g>
<!-- AppRoutingModule -->
<g id="node6" class="node">
<title>AppRoutingModule</title>
<polygon fill="#8dd3c7" stroke="black" points="2258.27,-122 2255.27,-126 2234.27,-126 2231.27,-122 2129.73,-122 2129.73,-86 2258.27,-86 2258.27,-122"/>
<text text-anchor="middle" x="2194" y="-99.8" font-family="Times,serif" font-size="14.00">AppRoutingModule</text>
</g>
<!-- AppRoutingModule&#45;&gt;AppModule -->
<g id="edge4" class="edge">
<title>AppRoutingModule&#45;&gt;AppModule</title>
<path fill="none" stroke="black" d="M2194,-122.22C2194,-122.22 2194,-143.73 2194,-143.73"/>
<polygon fill="black" stroke="black" points="2190.5,-143.73 2194,-153.73 2197.5,-143.73 2190.5,-143.73"/>
</g>
<!-- ShareModule -->
<g id="node7" class="node">
<title>ShareModule</title>
<polygon fill="#8dd3c7" stroke="black" points="2111.92,-122 2108.92,-126 2087.92,-126 2084.92,-122 2020.08,-122 2020.08,-86 2111.92,-86 2111.92,-122"/>
<text text-anchor="middle" x="2066" y="-99.8" font-family="Times,serif" font-size="14.00">ShareModule</text>
</g>
<!-- ShareModule&#45;&gt;AppModule -->
<g id="edge5" class="edge">
<title>ShareModule&#45;&gt;AppModule</title>
<path fill="none" stroke="black" d="M2096.47,-122.29C2096.47,-144.21 2096.47,-178 2096.47,-178 2096.47,-178 2142.07,-178 2142.07,-178"/>
<polygon fill="black" stroke="black" points="2142.07,-181.5 2152.07,-178 2142.07,-174.5 2142.07,-181.5"/>
</g>
<!-- DepartmentResultPageModule -->
<g id="node13" class="node">
<title>DepartmentResultPageModule</title>
<polygon fill="#8dd3c7" stroke="black" points="2639.12,-190 2636.12,-194 2615.12,-194 2612.12,-190 2450.88,-190 2450.88,-154 2639.12,-154 2639.12,-190"/>
<text text-anchor="middle" x="2545" y="-167.8" font-family="Times,serif" font-size="14.00">DepartmentResultPageModule</text>
</g>
<!-- ShareModule&#45;&gt;DepartmentResultPageModule -->
<g id="edge11" class="edge">
<title>ShareModule&#45;&gt;DepartmentResultPageModule</title>
<path fill="none" stroke="black" d="M2035.53,-122.06C2035.53,-133.44 2035.53,-146 2035.53,-146 2035.53,-146 2513.56,-146 2513.56,-146 2513.56,-146 2513.56,-146.79 2513.56,-146.79"/>
<polygon fill="black" stroke="black" points="2510.06,-143.94 2513.56,-153.94 2517.06,-143.94 2510.06,-143.94"/>
</g>
<!-- HomePageModule -->
<g id="node19" class="node">
<title>HomePageModule</title>
<polygon fill="#8dd3c7" stroke="black" points="3015.47,-190 3012.47,-194 2991.47,-194 2988.47,-190 2894.53,-190 2894.53,-154 3015.47,-154 3015.47,-190"/>
<text text-anchor="middle" x="2955" y="-167.8" font-family="Times,serif" font-size="14.00">HomePageModule</text>
</g>
<!-- ShareModule&#45;&gt;HomePageModule -->
<g id="edge16" class="edge">
<title>ShareModule&#45;&gt;HomePageModule</title>
<path fill="none" stroke="black" d="M2050.76,-122.19C2050.76,-130.28 2050.76,-138 2050.76,-138 2050.76,-138 2934.84,-138 2934.84,-138 2934.84,-138 2934.84,-143.81 2934.84,-143.81"/>
<polygon fill="black" stroke="black" points="2931.34,-143.81 2934.84,-153.81 2938.34,-143.81 2931.34,-143.81"/>
</g>
<!-- SearchProductPageModule -->
<g id="node28" class="node">
<title>SearchProductPageModule</title>
<polygon fill="#8dd3c7" stroke="black" points="3371.4,-190 3368.4,-194 3347.4,-194 3344.4,-190 3202.6,-190 3202.6,-154 3371.4,-154 3371.4,-190"/>
<text text-anchor="middle" x="3287" y="-167.8" font-family="Times,serif" font-size="14.00">SearchProductPageModule</text>
</g>
<!-- ShareModule&#45;&gt;SearchProductPageModule -->
<g id="edge23" class="edge">
<title>ShareModule&#45;&gt;SearchProductPageModule</title>
<path fill="none" stroke="black" d="M2066,-122.06C2066,-126.49 2066,-130 2066,-130 2066,-130 3258.93,-130 3258.93,-130 3258.93,-130 3258.93,-143.94 3258.93,-143.94"/>
<polygon fill="black" stroke="black" points="3255.43,-143.94 3258.93,-153.94 3262.43,-143.94 3255.43,-143.94"/>
</g>
<!-- CheckoutIconComponent  -->
<g id="node35" class="node">
<title>CheckoutIconComponent </title>
<polygon fill="#fb8072" stroke="black" points="841.86,-190 678.14,-190 678.14,-154 841.86,-154 841.86,-190"/>
<text text-anchor="middle" x="760" y="-167.8" font-family="Times,serif" font-size="14.00">CheckoutIconComponent </text>
</g>
<!-- ShareModule&#45;&gt;CheckoutIconComponent  -->
<g id="edge29" class="edge">
<title>ShareModule&#45;&gt;CheckoutIconComponent </title>
<path fill="none" stroke="black" stroke-dasharray="5,2" d="M2020.28,-97C1789.13,-97 760,-97 760,-97 760,-97 760,-143.84 760,-143.84"/>
<polygon fill="black" stroke="black" points="756.5,-143.84 760,-153.84 763.5,-143.84 756.5,-143.84"/>
</g>
<!-- NewsComponent  -->
<g id="node36" class="node">
<title>NewsComponent </title>
<polygon fill="#fb8072" stroke="black" points="660.21,-190 543.79,-190 543.79,-154 660.21,-154 660.21,-190"/>
<text text-anchor="middle" x="602" y="-167.8" font-family="Times,serif" font-size="14.00">NewsComponent </text>
</g>
<!-- ShareModule&#45;&gt;NewsComponent  -->
<g id="edge30" class="edge">
<title>ShareModule&#45;&gt;NewsComponent </title>
<path fill="none" stroke="black" stroke-dasharray="5,2" d="M2020.17,-94C1772.19,-94 602,-94 602,-94 602,-94 602,-143.91 602,-143.91"/>
<polygon fill="black" stroke="black" points="598.5,-143.91 602,-153.91 605.5,-143.91 598.5,-143.91"/>
</g>
<!-- ProductDetailsComponent  -->
<g id="node37" class="node">
<title>ProductDetailsComponent </title>
<polygon fill="#fb8072" stroke="black" points="526.03,-190 357.97,-190 357.97,-154 526.03,-154 526.03,-190"/>
<text text-anchor="middle" x="442" y="-167.8" font-family="Times,serif" font-size="14.00">ProductDetailsComponent </text>
</g>
<!-- ShareModule&#45;&gt;ProductDetailsComponent  -->
<g id="edge31" class="edge">
<title>ShareModule&#45;&gt;ProductDetailsComponent </title>
<path fill="none" stroke="black" stroke-dasharray="5,2" d="M2020.01,-90C1755.73,-90 442,-90 442,-90 442,-90 442,-143.8 442,-143.8"/>
<polygon fill="black" stroke="black" points="438.5,-143.8 442,-153.8 445.5,-143.8 438.5,-143.8"/>
</g>
<!-- ProductListComponent  -->
<g id="node38" class="node">
<title>ProductListComponent </title>
<polygon fill="#fb8072" stroke="black" points="1166.16,-190 1015.84,-190 1015.84,-154 1166.16,-154 1166.16,-190"/>
<text text-anchor="middle" x="1091" y="-167.8" font-family="Times,serif" font-size="14.00">ProductListComponent </text>
</g>
<!-- ShareModule&#45;&gt;ProductListComponent  -->
<g id="edge32" class="edge">
<title>ShareModule&#45;&gt;ProductListComponent </title>
<path fill="none" stroke="black" stroke-dasharray="5,2" d="M2020.28,-104C1827.52,-104 1091,-104 1091,-104 1091,-104 1091,-143.78 1091,-143.78"/>
<polygon fill="black" stroke="black" points="1087.5,-143.78 1091,-153.78 1094.5,-143.78 1087.5,-143.78"/>
</g>
<!-- TabmenuComponent  -->
<g id="node39" class="node">
<title>TabmenuComponent </title>
<polygon fill="#fb8072" stroke="black" points="997.71,-190 860.29,-190 860.29,-154 997.71,-154 997.71,-190"/>
<text text-anchor="middle" x="929" y="-167.8" font-family="Times,serif" font-size="14.00">TabmenuComponent </text>
</g>
<!-- ShareModule&#45;&gt;TabmenuComponent  -->
<g id="edge33" class="edge">
<title>ShareModule&#45;&gt;TabmenuComponent </title>
<path fill="none" stroke="black" stroke-dasharray="5,2" d="M2020.02,-101C1807.31,-101 929,-101 929,-101 929,-101 929,-143.72 929,-143.72"/>
<polygon fill="black" stroke="black" points="925.5,-143.72 929,-153.72 932.5,-143.72 925.5,-143.72"/>
</g>
<!-- DepartmentPage -->
<g id="node9" class="node">
<title>DepartmentPage</title>
<polygon fill="#ffffb3" stroke="black" points="3913.79,-122 3804.21,-122 3804.21,-86 3913.79,-86 3913.79,-122"/>
<text text-anchor="middle" x="3859" y="-99.8" font-family="Times,serif" font-size="14.00">DepartmentPage</text>
</g>
<!-- DepartmentPageModule -->
<g id="node10" class="node">
<title>DepartmentPageModule</title>
<polygon fill="#8dd3c7" stroke="black" points="3839.34,-190 3836.34,-194 3815.34,-194 3812.34,-190 3686.66,-190 3686.66,-154 3839.34,-154 3839.34,-190"/>
<text text-anchor="middle" x="3763" y="-167.8" font-family="Times,serif" font-size="14.00">DepartmentPageModule</text>
</g>
<!-- DepartmentPage&#45;&gt;DepartmentPageModule -->
<g id="edge7" class="edge">
<title>DepartmentPage&#45;&gt;DepartmentPageModule</title>
<path fill="none" stroke="black" d="M3821.89,-122.22C3821.89,-122.22 3821.89,-143.73 3821.89,-143.73"/>
<polygon fill="black" stroke="black" points="3818.39,-143.73 3821.89,-153.73 3825.39,-143.73 3818.39,-143.73"/>
</g>
<!-- DepartmentPageRoutingModule -->
<g id="node11" class="node">
<title>DepartmentPageRoutingModule</title>
<polygon fill="#8dd3c7" stroke="black" points="3779.96,-122 3776.96,-126 3755.96,-126 3752.96,-122 3582.04,-122 3582.04,-86 3779.96,-86 3779.96,-122"/>
<text text-anchor="middle" x="3681" y="-99.8" font-family="Times,serif" font-size="14.00">DepartmentPageRoutingModule</text>
</g>
<!-- DepartmentPageRoutingModule&#45;&gt;DepartmentPageModule -->
<g id="edge8" class="edge">
<title>DepartmentPageRoutingModule&#45;&gt;DepartmentPageModule</title>
<path fill="none" stroke="black" d="M3733.28,-122.22C3733.28,-122.22 3733.28,-143.73 3733.28,-143.73"/>
<polygon fill="black" stroke="black" points="3729.78,-143.73 3733.28,-153.73 3736.78,-143.73 3729.78,-143.73"/>
</g>
<!-- DepartmentResultPage -->
<g id="node12" class="node">
<title>DepartmentResultPage</title>
<polygon fill="#ffffb3" stroke="black" points="2831.57,-122 2686.43,-122 2686.43,-86 2831.57,-86 2831.57,-122"/>
<text text-anchor="middle" x="2759" y="-99.8" font-family="Times,serif" font-size="14.00">DepartmentResultPage</text>
</g>
<!-- DepartmentResultPage&#45;&gt;DepartmentResultPageModule -->
<g id="edge9" class="edge">
<title>DepartmentResultPage&#45;&gt;DepartmentResultPageModule</title>
<path fill="none" stroke="black" d="M2759,-122.22C2759,-142.37 2759,-172 2759,-172 2759,-172 2649.17,-172 2649.17,-172"/>
<polygon fill="black" stroke="black" points="2649.17,-168.5 2639.17,-172 2649.17,-175.5 2649.17,-168.5"/>
</g>
<!-- DepartmentResultPageRoutingModule -->
<g id="node14" class="node">
<title>DepartmentResultPageRoutingModule</title>
<polygon fill="#8dd3c7" stroke="black" points="2661.74,-122 2658.74,-126 2637.74,-126 2634.74,-122 2428.26,-122 2428.26,-86 2661.74,-86 2661.74,-122"/>
<text text-anchor="middle" x="2545" y="-99.8" font-family="Times,serif" font-size="14.00">DepartmentResultPageRoutingModule</text>
</g>
<!-- DepartmentResultPageRoutingModule&#45;&gt;DepartmentResultPageModule -->
<g id="edge10" class="edge">
<title>DepartmentResultPageRoutingModule&#45;&gt;DepartmentResultPageModule</title>
<path fill="none" stroke="black" d="M2576.44,-122.22C2576.44,-122.22 2576.44,-143.73 2576.44,-143.73"/>
<polygon fill="black" stroke="black" points="2572.94,-143.73 2576.44,-153.73 2579.94,-143.73 2572.94,-143.73"/>
</g>
<!-- ForgotPasswordPage -->
<g id="node15" class="node">
<title>ForgotPasswordPage</title>
<polygon fill="#ffffb3" stroke="black" points="4334.2,-122 4199.8,-122 4199.8,-86 4334.2,-86 4334.2,-122"/>
<text text-anchor="middle" x="4267" y="-99.8" font-family="Times,serif" font-size="14.00">ForgotPasswordPage</text>
</g>
<!-- ForgotPasswordPageModule -->
<g id="node16" class="node">
<title>ForgotPasswordPageModule</title>
<polygon fill="#8dd3c7" stroke="black" points="4247.75,-190 4244.75,-194 4223.75,-194 4220.75,-190 4070.25,-190 4070.25,-154 4247.75,-154 4247.75,-190"/>
<text text-anchor="middle" x="4159" y="-167.8" font-family="Times,serif" font-size="14.00">ForgotPasswordPageModule</text>
</g>
<!-- ForgotPasswordPage&#45;&gt;ForgotPasswordPageModule -->
<g id="edge12" class="edge">
<title>ForgotPasswordPage&#45;&gt;ForgotPasswordPageModule</title>
<path fill="none" stroke="black" d="M4223.89,-122.22C4223.89,-122.22 4223.89,-143.73 4223.89,-143.73"/>
<polygon fill="black" stroke="black" points="4220.39,-143.73 4223.89,-153.73 4227.39,-143.73 4220.39,-143.73"/>
</g>
<!-- ForgotPasswordPageRoutingModule -->
<g id="node17" class="node">
<title>ForgotPasswordPageRoutingModule</title>
<polygon fill="#8dd3c7" stroke="black" points="4176.37,-122 4173.37,-126 4152.37,-126 4149.37,-122 3953.63,-122 3953.63,-86 4176.37,-86 4176.37,-122"/>
<text text-anchor="middle" x="4065" y="-99.8" font-family="Times,serif" font-size="14.00">ForgotPasswordPageRoutingModule</text>
</g>
<!-- ForgotPasswordPageRoutingModule&#45;&gt;ForgotPasswordPageModule -->
<g id="edge13" class="edge">
<title>ForgotPasswordPageRoutingModule&#45;&gt;ForgotPasswordPageModule</title>
<path fill="none" stroke="black" d="M4123.28,-122.22C4123.28,-122.22 4123.28,-143.73 4123.28,-143.73"/>
<polygon fill="black" stroke="black" points="4119.78,-143.73 4123.28,-153.73 4126.78,-143.73 4119.78,-143.73"/>
</g>
<!-- HomePage -->
<g id="node18" class="node">
<title>HomePage</title>
<polygon fill="#ffffb3" stroke="black" points="3139.92,-122 3062.08,-122 3062.08,-86 3139.92,-86 3139.92,-122"/>
<text text-anchor="middle" x="3101" y="-99.8" font-family="Times,serif" font-size="14.00">HomePage</text>
</g>
<!-- HomePage&#45;&gt;HomePageModule -->
<g id="edge14" class="edge">
<title>HomePage&#45;&gt;HomePageModule</title>
<path fill="none" stroke="black" d="M3101,-122.22C3101,-142.37 3101,-172 3101,-172 3101,-172 3025.65,-172 3025.65,-172"/>
<polygon fill="black" stroke="black" points="3025.65,-168.5 3015.65,-172 3025.65,-175.5 3025.65,-168.5"/>
</g>
<!-- HomePageRoutingModule -->
<g id="node20" class="node">
<title>HomePageRoutingModule</title>
<polygon fill="#8dd3c7" stroke="black" points="3038.09,-122 3035.09,-126 3014.09,-126 3011.09,-122 2871.91,-122 2871.91,-86 3038.09,-86 3038.09,-122"/>
<text text-anchor="middle" x="2955" y="-99.8" font-family="Times,serif" font-size="14.00">HomePageRoutingModule</text>
</g>
<!-- HomePageRoutingModule&#45;&gt;HomePageModule -->
<g id="edge15" class="edge">
<title>HomePageRoutingModule&#45;&gt;HomePageModule</title>
<path fill="none" stroke="black" d="M2975.16,-122.22C2975.16,-122.22 2975.16,-143.73 2975.16,-143.73"/>
<polygon fill="black" stroke="black" points="2971.66,-143.73 2975.16,-153.73 2978.66,-143.73 2971.66,-143.73"/>
</g>
<!-- LogInPage -->
<g id="node21" class="node">
<title>LogInPage</title>
<polygon fill="#ffffb3" stroke="black" points="4641.93,-122 4564.07,-122 4564.07,-86 4641.93,-86 4641.93,-122"/>
<text text-anchor="middle" x="4603" y="-99.8" font-family="Times,serif" font-size="14.00">LogInPage</text>
</g>
<!-- LogInPageModule -->
<g id="node22" class="node">
<title>LogInPageModule</title>
<polygon fill="#8dd3c7" stroke="black" points="4583.47,-190 4580.47,-194 4559.47,-194 4556.47,-190 4462.53,-190 4462.53,-154 4583.47,-154 4583.47,-190"/>
<text text-anchor="middle" x="4523" y="-167.8" font-family="Times,serif" font-size="14.00">LogInPageModule</text>
</g>
<!-- LogInPage&#45;&gt;LogInPageModule -->
<g id="edge17" class="edge">
<title>LogInPage&#45;&gt;LogInPageModule</title>
<path fill="none" stroke="black" d="M4573.89,-122.22C4573.89,-122.22 4573.89,-143.73 4573.89,-143.73"/>
<polygon fill="black" stroke="black" points="4570.39,-143.73 4573.89,-153.73 4577.39,-143.73 4570.39,-143.73"/>
</g>
<!-- LogInPageRoutingModule -->
<g id="node23" class="node">
<title>LogInPageRoutingModule</title>
<polygon fill="#8dd3c7" stroke="black" points="4540.09,-122 4537.09,-126 4516.09,-126 4513.09,-122 4373.91,-122 4373.91,-86 4540.09,-86 4540.09,-122"/>
<text text-anchor="middle" x="4457" y="-99.8" font-family="Times,serif" font-size="14.00">LogInPageRoutingModule</text>
</g>
<!-- LogInPageRoutingModule&#45;&gt;LogInPageModule -->
<g id="edge18" class="edge">
<title>LogInPageRoutingModule&#45;&gt;LogInPageModule</title>
<path fill="none" stroke="black" d="M4501.28,-122.22C4501.28,-122.22 4501.28,-143.73 4501.28,-143.73"/>
<polygon fill="black" stroke="black" points="4497.78,-143.73 4501.28,-153.73 4504.78,-143.73 4497.78,-143.73"/>
</g>
<!-- ProfilePage -->
<g id="node24" class="node">
<title>ProfilePage</title>
<polygon fill="#ffffb3" stroke="black" points="4957.81,-122 4876.19,-122 4876.19,-86 4957.81,-86 4957.81,-122"/>
<text text-anchor="middle" x="4917" y="-99.8" font-family="Times,serif" font-size="14.00">ProfilePage</text>
</g>
<!-- ProfilePageModule -->
<g id="node25" class="node">
<title>ProfilePageModule</title>
<polygon fill="#8dd3c7" stroke="black" points="4897.36,-190 4894.36,-194 4873.36,-194 4870.36,-190 4772.64,-190 4772.64,-154 4897.36,-154 4897.36,-190"/>
<text text-anchor="middle" x="4835" y="-167.8" font-family="Times,serif" font-size="14.00">ProfilePageModule</text>
</g>
<!-- ProfilePage&#45;&gt;ProfilePageModule -->
<g id="edge19" class="edge">
<title>ProfilePage&#45;&gt;ProfilePageModule</title>
<path fill="none" stroke="black" d="M4886.89,-122.22C4886.89,-122.22 4886.89,-143.73 4886.89,-143.73"/>
<polygon fill="black" stroke="black" points="4883.39,-143.73 4886.89,-153.73 4890.39,-143.73 4883.39,-143.73"/>
</g>
<!-- ProfilePageRoutingModule -->
<g id="node26" class="node">
<title>ProfilePageRoutingModule</title>
<polygon fill="#8dd3c7" stroke="black" points="4851.98,-122 4848.98,-126 4827.98,-126 4824.98,-122 4682.02,-122 4682.02,-86 4851.98,-86 4851.98,-122"/>
<text text-anchor="middle" x="4767" y="-99.8" font-family="Times,serif" font-size="14.00">ProfilePageRoutingModule</text>
</g>
<!-- ProfilePageRoutingModule&#45;&gt;ProfilePageModule -->
<g id="edge20" class="edge">
<title>ProfilePageRoutingModule&#45;&gt;ProfilePageModule</title>
<path fill="none" stroke="black" d="M4812.28,-122.22C4812.28,-122.22 4812.28,-143.73 4812.28,-143.73"/>
<polygon fill="black" stroke="black" points="4808.78,-143.73 4812.28,-153.73 4815.78,-143.73 4808.78,-143.73"/>
</g>
<!-- SearchProductPage -->
<g id="node27" class="node">
<title>SearchProductPage</title>
<polygon fill="#ffffb3" stroke="black" points="3542.35,-122 3417.65,-122 3417.65,-86 3542.35,-86 3542.35,-122"/>
<text text-anchor="middle" x="3480" y="-99.8" font-family="Times,serif" font-size="14.00">SearchProductPage</text>
</g>
<!-- SearchProductPage&#45;&gt;SearchProductPageModule -->
<g id="edge21" class="edge">
<title>SearchProductPage&#45;&gt;SearchProductPageModule</title>
<path fill="none" stroke="black" d="M3480,-122.22C3480,-142.37 3480,-172 3480,-172 3480,-172 3381.37,-172 3381.37,-172"/>
<polygon fill="black" stroke="black" points="3381.37,-168.5 3371.37,-172 3381.37,-175.5 3381.37,-168.5"/>
</g>
<!-- SearchProductPageRoutingModule -->
<g id="node29" class="node">
<title>SearchProductPageRoutingModule</title>
<polygon fill="#8dd3c7" stroke="black" points="3393.52,-122 3390.52,-126 3369.52,-126 3366.52,-122 3180.48,-122 3180.48,-86 3393.52,-86 3393.52,-122"/>
<text text-anchor="middle" x="3287" y="-99.8" font-family="Times,serif" font-size="14.00">SearchProductPageRoutingModule</text>
</g>
<!-- SearchProductPageRoutingModule&#45;&gt;SearchProductPageModule -->
<g id="edge22" class="edge">
<title>SearchProductPageRoutingModule&#45;&gt;SearchProductPageModule</title>
<path fill="none" stroke="black" d="M3315.07,-122.22C3315.07,-122.22 3315.07,-143.73 3315.07,-143.73"/>
<polygon fill="black" stroke="black" points="3311.57,-143.73 3315.07,-153.73 3318.57,-143.73 3311.57,-143.73"/>
</g>
<!-- CheckoutIconComponent -->
<g id="node30" class="node">
<title>CheckoutIconComponent</title>
<polygon fill="#ffffb3" stroke="black" points="1663.86,-190 1504.14,-190 1504.14,-154 1663.86,-154 1663.86,-190"/>
<text text-anchor="middle" x="1584" y="-167.8" font-family="Times,serif" font-size="14.00">CheckoutIconComponent</text>
</g>
<!-- CheckoutIconComponent&#45;&gt;ShareModule -->
<g id="edge24" class="edge">
<title>CheckoutIconComponent&#45;&gt;ShareModule</title>
<path fill="none" stroke="black" d="M1584,-153.96C1584,-137.27 1584,-115 1584,-115 1584,-115 2010.22,-115 2010.22,-115"/>
<polygon fill="black" stroke="black" points="2010.22,-118.5 2020.22,-115 2010.22,-111.5 2010.22,-118.5"/>
</g>
<!-- NewsComponent -->
<g id="node31" class="node">
<title>NewsComponent</title>
<polygon fill="#ffffb3" stroke="black" points="1485.7,-190 1372.3,-190 1372.3,-154 1485.7,-154 1485.7,-190"/>
<text text-anchor="middle" x="1429" y="-167.8" font-family="Times,serif" font-size="14.00">NewsComponent</text>
</g>
<!-- NewsComponent&#45;&gt;ShareModule -->
<g id="edge25" class="edge">
<title>NewsComponent&#45;&gt;ShareModule</title>
<path fill="none" stroke="black" d="M1429,-154C1429,-136.32 1429,-112 1429,-112 1429,-112 2010.19,-112 2010.19,-112"/>
<polygon fill="black" stroke="black" points="2010.19,-115.5 2020.19,-112 2010.19,-108.5 2010.19,-115.5"/>
</g>
<!-- ProductDetailsComponent -->
<g id="node32" class="node">
<title>ProductDetailsComponent</title>
<polygon fill="#ffffb3" stroke="black" points="1354.03,-190 1189.97,-190 1189.97,-154 1354.03,-154 1354.03,-190"/>
<text text-anchor="middle" x="1272" y="-167.8" font-family="Times,serif" font-size="14.00">ProductDetailsComponent</text>
</g>
<!-- ProductDetailsComponent&#45;&gt;ShareModule -->
<g id="edge26" class="edge">
<title>ProductDetailsComponent&#45;&gt;ShareModule</title>
<path fill="none" stroke="black" d="M1272,-153.83C1272,-134.91 1272,-108 1272,-108 1272,-108 2010.17,-108 2010.17,-108"/>
<polygon fill="black" stroke="black" points="2010.17,-111.5 2020.17,-108 2010.17,-104.5 2010.17,-111.5"/>
</g>
<!-- ProductListComponent -->
<g id="node33" class="node">
<title>ProductListComponent</title>
<polygon fill="#ffffb3" stroke="black" points="1980.16,-190 1833.84,-190 1833.84,-154 1980.16,-154 1980.16,-190"/>
<text text-anchor="middle" x="1907" y="-167.8" font-family="Times,serif" font-size="14.00">ProductListComponent</text>
</g>
<!-- ProductListComponent&#45;&gt;ShareModule -->
<g id="edge27" class="edge">
<title>ProductListComponent&#45;&gt;ShareModule</title>
<path fill="none" stroke="black" d="M1980.39,-166C2028,-166 2081.24,-166 2081.24,-166 2081.24,-166 2081.24,-132.27 2081.24,-132.27"/>
<polygon fill="black" stroke="black" points="2084.74,-132.27 2081.24,-122.27 2077.74,-132.27 2084.74,-132.27"/>
</g>
<!-- TabmenuComponent -->
<g id="node34" class="node">
<title>TabmenuComponent</title>
<polygon fill="#ffffb3" stroke="black" points="1816.2,-190 1681.8,-190 1681.8,-154 1816.2,-154 1816.2,-190"/>
<text text-anchor="middle" x="1749" y="-167.8" font-family="Times,serif" font-size="14.00">TabmenuComponent</text>
</g>
<!-- TabmenuComponent&#45;&gt;ShareModule -->
<g id="edge28" class="edge">
<title>TabmenuComponent&#45;&gt;ShareModule</title>
<path fill="none" stroke="black" d="M1749,-153.76C1749,-138.43 1749,-119 1749,-119 1749,-119 2010.24,-119 2010.24,-119"/>
<polygon fill="black" stroke="black" points="2010.24,-122.5 2020.24,-119 2010.24,-115.5 2010.24,-122.5"/>
</g>
<!-- ShoppingCartPage -->
<g id="node40" class="node">
<title>ShoppingCartPage</title>
<polygon fill="#ffffb3" stroke="black" points="5352.49,-122 5231.51,-122 5231.51,-86 5352.49,-86 5352.49,-122"/>
<text text-anchor="middle" x="5292" y="-99.8" font-family="Times,serif" font-size="14.00">ShoppingCartPage</text>
</g>
<!-- ShoppingCartPageModule -->
<g id="node41" class="node">
<title>ShoppingCartPageModule</title>
<polygon fill="#8dd3c7" stroke="black" points="5272.04,-190 5269.04,-194 5248.04,-194 5245.04,-190 5107.96,-190 5107.96,-154 5272.04,-154 5272.04,-190"/>
<text text-anchor="middle" x="5190" y="-167.8" font-family="Times,serif" font-size="14.00">ShoppingCartPageModule</text>
</g>
<!-- ShoppingCartPage&#45;&gt;ShoppingCartPageModule -->
<g id="edge34" class="edge">
<title>ShoppingCartPage&#45;&gt;ShoppingCartPageModule</title>
<path fill="none" stroke="black" d="M5251.89,-122.22C5251.89,-122.22 5251.89,-143.73 5251.89,-143.73"/>
<polygon fill="black" stroke="black" points="5248.39,-143.73 5251.89,-153.73 5255.39,-143.73 5248.39,-143.73"/>
</g>
<!-- ShoppingCartPageRoutingModule -->
<g id="node42" class="node">
<title>ShoppingCartPageRoutingModule</title>
<polygon fill="#8dd3c7" stroke="black" points="5207.66,-122 5204.66,-126 5183.66,-126 5180.66,-122 4998.34,-122 4998.34,-86 5207.66,-86 5207.66,-122"/>
<text text-anchor="middle" x="5103" y="-99.8" font-family="Times,serif" font-size="14.00">ShoppingCartPageRoutingModule</text>
</g>
<!-- ShoppingCartPageRoutingModule&#45;&gt;ShoppingCartPageModule -->
<g id="edge35" class="edge">
<title>ShoppingCartPageRoutingModule&#45;&gt;ShoppingCartPageModule</title>
<path fill="none" stroke="black" d="M5157.78,-122.22C5157.78,-122.22 5157.78,-143.73 5157.78,-143.73"/>
<polygon fill="black" stroke="black" points="5154.28,-143.73 5157.78,-153.73 5161.28,-143.73 5154.28,-143.73"/>
</g>
<!-- SignUpPage -->
<g id="node43" class="node">
<title>SignUpPage</title>
<polygon fill="#ffffb3" stroke="black" points="5675.99,-122 5590.01,-122 5590.01,-86 5675.99,-86 5675.99,-122"/>
<text text-anchor="middle" x="5633" y="-99.8" font-family="Times,serif" font-size="14.00">SignUpPage</text>
</g>
<!-- SignUpPageModule -->
<g id="node44" class="node">
<title>SignUpPageModule</title>
<polygon fill="#8dd3c7" stroke="black" points="5613.54,-190 5610.54,-194 5589.54,-194 5586.54,-190 5484.46,-190 5484.46,-154 5613.54,-154 5613.54,-190"/>
<text text-anchor="middle" x="5549" y="-167.8" font-family="Times,serif" font-size="14.00">SignUpPageModule</text>
</g>
<!-- SignUpPage&#45;&gt;SignUpPageModule -->
<g id="edge36" class="edge">
<title>SignUpPage&#45;&gt;SignUpPageModule</title>
<path fill="none" stroke="black" d="M5601.89,-122.22C5601.89,-122.22 5601.89,-143.73 5601.89,-143.73"/>
<polygon fill="black" stroke="black" points="5598.39,-143.73 5601.89,-153.73 5605.39,-143.73 5598.39,-143.73"/>
</g>
<!-- SignUpPageRoutingModule -->
<g id="node45" class="node">
<title>SignUpPageRoutingModule</title>
<polygon fill="#8dd3c7" stroke="black" points="5566.16,-122 5563.16,-126 5542.16,-126 5539.16,-122 5391.84,-122 5391.84,-86 5566.16,-86 5566.16,-122"/>
<text text-anchor="middle" x="5479" y="-99.8" font-family="Times,serif" font-size="14.00">SignUpPageRoutingModule</text>
</g>
<!-- SignUpPageRoutingModule&#45;&gt;SignUpPageModule -->
<g id="edge37" class="edge">
<title>SignUpPageRoutingModule&#45;&gt;SignUpPageModule</title>
<path fill="none" stroke="black" d="M5525.28,-122.22C5525.28,-122.22 5525.28,-143.73 5525.28,-143.73"/>
<polygon fill="black" stroke="black" points="5521.78,-143.73 5525.28,-153.73 5528.78,-143.73 5521.78,-143.73"/>
</g>
</g>
</svg>
