<?xml version="1.0" encoding="UTF-8" standalone="no"?>
<!DOCTYPE svg PUBLIC "-//W3C//DTD SVG 1.1//EN"
 "http://www.w3.org/Graphics/SVG/1.1/DTD/svg11.dtd">
<!-- Generated by graphviz version 2.47.0 (20210316.0004)
 -->
<!-- Title: dependencies Pages: 1 -->
<svg width="527pt" height="211pt"
 viewBox="0.00 0.00 527.00 211.00" xmlns="http://www.w3.org/2000/svg" xmlns:xlink="http://www.w3.org/1999/xlink">
<g id="graph0" class="graph" transform="scale(1 1) rotate(0) translate(4 207)">
<title>dependencies</title>
<polygon fill="white" stroke="transparent" points="-4,4 -4,-207 523,-207 523,4 -4,4"/>
<text text-anchor="start" x="238.51" y="-42.4" font-family="Times-12" font-weight="bold" font-size="14.00">Legend</text>
<polygon fill="#ffffb3" stroke="transparent" points="25.5,-10 25.5,-30 45.5,-30 45.5,-10 25.5,-10"/>
<text text-anchor="start" x="49.13" y="-15.4" font-family="Times-12" font-size="14.00"> &#160;Declarations</text>
<polygon fill="#8dd3c7" stroke="transparent" points="138.5,-10 138.5,-30 158.5,-30 158.5,-10 138.5,-10"/>
<text text-anchor="start" x="162.23" y="-15.4" font-family="Times-12" font-size="14.00"> &#160;Module</text>
<polygon fill="#80b1d3" stroke="transparent" points="224.5,-10 224.5,-30 244.5,-30 244.5,-10 224.5,-10"/>
<text text-anchor="start" x="248.28" y="-15.4" font-family="Times-12" font-size="14.00"> &#160;Bootstrap</text>
<polygon fill="#fdb462" stroke="transparent" points="321.5,-10 321.5,-30 341.5,-30 341.5,-10 321.5,-10"/>
<text text-anchor="start" x="345.17" y="-15.4" font-family="Times-12" font-size="14.00"> &#160;Providers</text>
<polygon fill="#fb8072" stroke="transparent" points="417.5,-10 417.5,-30 437.5,-30 437.5,-10 417.5,-10"/>
<text text-anchor="start" x="441.23" y="-15.4" font-family="Times-12" font-size="14.00"> &#160;Exports</text>
<g id="clust1" class="cluster">
<title>cluster_SearchProductPageModule</title>
<polygon fill="none" stroke="black" stroke-dasharray="1,5" points="8,-70 8,-195 511,-195 511,-70 8,-70"/>
</g>
<g id="clust4" class="cluster">
<title>cluster_SearchProductPageModule_imports</title>
<polygon fill="none" stroke="black" points="164,-78 164,-130 503,-130 503,-78 164,-78"/>
</g>
<g id="clust2" class="cluster">
<title>cluster_SearchProductPageModule_declarations</title>
<polygon fill="none" stroke="black" points="16,-78 16,-130 156,-130 156,-78 16,-78"/>
</g>
<!-- SearchProductPage -->
<g id="node1" class="node">
<title>SearchProductPage</title>
<polygon fill="#ffffb3" stroke="black" points="148.35,-122 23.65,-122 23.65,-86 148.35,-86 148.35,-122"/>
<text text-anchor="middle" x="86" y="-99.8" font-family="Times,serif" font-size="14.00">SearchProductPage</text>
</g>
<!-- SearchProductPageModule -->
<g id="node2" class="node">
<title>SearchProductPageModule</title>
<polygon fill="#8dd3c7" stroke="black" points="302.4,-187 299.4,-191 278.4,-191 275.4,-187 133.6,-187 133.6,-151 302.4,-151 302.4,-187"/>
<text text-anchor="middle" x="218" y="-164.8" font-family="Times,serif" font-size="14.00">SearchProductPageModule</text>
</g>
<!-- SearchProductPage&#45;&gt;SearchProductPageModule -->
<g id="edge1" class="edge">
<title>SearchProductPage&#45;&gt;SearchProductPageModule</title>
<path fill="none" stroke="black" d="M141.11,-122.11C141.11,-122.11 141.11,-140.99 141.11,-140.99"/>
<polygon fill="black" stroke="black" points="137.61,-140.99 141.11,-150.99 144.61,-140.99 137.61,-140.99"/>
</g>
<!-- SearchProductPageRoutingModule -->
<g id="node3" class="node">
<title>SearchProductPageRoutingModule</title>
<polygon fill="#8dd3c7" stroke="black" points="494.52,-122 491.52,-126 470.52,-126 467.52,-122 281.48,-122 281.48,-86 494.52,-86 494.52,-122"/>
<text text-anchor="middle" x="388" y="-99.8" font-family="Times,serif" font-size="14.00">SearchProductPageRoutingModule</text>
</g>
<!-- SearchProductPageRoutingModule&#45;&gt;SearchProductPageModule -->
<g id="edge2" class="edge">
<title>SearchProductPageRoutingModule&#45;&gt;SearchProductPageModule</title>
<path fill="none" stroke="black" d="M291.72,-122.11C291.72,-122.11 291.72,-140.99 291.72,-140.99"/>
<polygon fill="black" stroke="black" points="288.22,-140.99 291.72,-150.99 295.22,-140.99 288.22,-140.99"/>
</g>
<!-- ShareModule -->
<g id="node4" class="node">
<title>ShareModule</title>
<polygon fill="#8dd3c7" stroke="black" points="263.92,-122 260.92,-126 239.92,-126 236.92,-122 172.08,-122 172.08,-86 263.92,-86 263.92,-122"/>
<text text-anchor="middle" x="218" y="-99.8" font-family="Times,serif" font-size="14.00">ShareModule</text>
</g>
<!-- ShareModule&#45;&gt;SearchProductPageModule -->
<g id="edge3" class="edge">
<title>ShareModule&#45;&gt;SearchProductPageModule</title>
<path fill="none" stroke="black" d="M218,-122.11C218,-122.11 218,-140.99 218,-140.99"/>
<polygon fill="black" stroke="black" points="214.5,-140.99 218,-150.99 221.5,-140.99 214.5,-140.99"/>
</g>
</g>
</svg>
