<?xml version="1.0" encoding="UTF-8" standalone="no"?>
<!DOCTYPE svg PUBLIC "-//W3C//DTD SVG 1.1//EN"
 "http://www.w3.org/Graphics/SVG/1.1/DTD/svg11.dtd">
<!-- Generated by graphviz version 2.47.0 (20210316.0004)
 -->
<!-- Title: dependencies Pages: 1 -->
<svg width="504pt" height="211pt"
 viewBox="0.00 0.00 504.00 211.00" xmlns="http://www.w3.org/2000/svg" xmlns:xlink="http://www.w3.org/1999/xlink">
<g id="graph0" class="graph" transform="scale(1 1) rotate(0) translate(4 207)">
<title>dependencies</title>
<polygon fill="white" stroke="transparent" points="-4,4 -4,-207 500,-207 500,4 -4,4"/>
<text text-anchor="start" x="227.01" y="-42.4" font-family="Times-12" font-weight="bold" font-size="14.00">Legend</text>
<polygon fill="#ffffb3" stroke="transparent" points="14,-10 14,-30 34,-30 34,-10 14,-10"/>
<text text-anchor="start" x="37.63" y="-15.4" font-family="Times-12" font-size="14.00"> &#160;Declarations</text>
<polygon fill="#8dd3c7" stroke="transparent" points="127,-10 127,-30 147,-30 147,-10 127,-10"/>
<text text-anchor="start" x="150.73" y="-15.4" font-family="Times-12" font-size="14.00"> &#160;Module</text>
<polygon fill="#80b1d3" stroke="transparent" points="213,-10 213,-30 233,-30 233,-10 213,-10"/>
<text text-anchor="start" x="236.78" y="-15.4" font-family="Times-12" font-size="14.00"> &#160;Bootstrap</text>
<polygon fill="#fdb462" stroke="transparent" points="310,-10 310,-30 330,-30 330,-10 310,-10"/>
<text text-anchor="start" x="333.67" y="-15.4" font-family="Times-12" font-size="14.00"> &#160;Providers</text>
<polygon fill="#fb8072" stroke="transparent" points="406,-10 406,-30 426,-30 426,-10 406,-10"/>
<text text-anchor="start" x="429.73" y="-15.4" font-family="Times-12" font-size="14.00"> &#160;Exports</text>
<g id="clust1" class="cluster">
<title>cluster_ForgotPasswordPageModule</title>
<polygon fill="none" stroke="black" stroke-dasharray="1,5" points="42,-70 42,-195 454,-195 454,-70 42,-70"/>
</g>
<g id="clust4" class="cluster">
<title>cluster_ForgotPasswordPageModule_imports</title>
<polygon fill="none" stroke="black" points="208,-78 208,-130 446,-130 446,-78 208,-78"/>
</g>
<g id="clust2" class="cluster">
<title>cluster_ForgotPasswordPageModule_declarations</title>
<polygon fill="none" stroke="black" points="50,-78 50,-130 200,-130 200,-78 50,-78"/>
</g>
<!-- ForgotPasswordPage -->
<g id="node1" class="node">
<title>ForgotPasswordPage</title>
<polygon fill="#ffffb3" stroke="black" points="192.2,-122 57.8,-122 57.8,-86 192.2,-86 192.2,-122"/>
<text text-anchor="middle" x="125" y="-99.8" font-family="Times,serif" font-size="14.00">ForgotPasswordPage</text>
</g>
<!-- ForgotPasswordPageModule -->
<g id="node2" class="node">
<title>ForgotPasswordPageModule</title>
<polygon fill="#8dd3c7" stroke="black" points="321.75,-187 318.75,-191 297.75,-191 294.75,-187 144.25,-187 144.25,-151 321.75,-151 321.75,-187"/>
<text text-anchor="middle" x="233" y="-164.8" font-family="Times,serif" font-size="14.00">ForgotPasswordPageModule</text>
</g>
<!-- ForgotPasswordPage&#45;&gt;ForgotPasswordPageModule -->
<g id="edge1" class="edge">
<title>ForgotPasswordPage&#45;&gt;ForgotPasswordPageModule</title>
<path fill="none" stroke="black" d="M168.11,-122.11C168.11,-122.11 168.11,-140.99 168.11,-140.99"/>
<polygon fill="black" stroke="black" points="164.61,-140.99 168.11,-150.99 171.61,-140.99 164.61,-140.99"/>
</g>
<!-- ForgotPasswordPageRoutingModule -->
<g id="node3" class="node">
<title>ForgotPasswordPageRoutingModule</title>
<polygon fill="#8dd3c7" stroke="black" points="438.37,-122 435.37,-126 414.37,-126 411.37,-122 215.63,-122 215.63,-86 438.37,-86 438.37,-122"/>
<text text-anchor="middle" x="327" y="-99.8" font-family="Times,serif" font-size="14.00">ForgotPasswordPageRoutingModule</text>
</g>
<!-- ForgotPasswordPageRoutingModule&#45;&gt;ForgotPasswordPageModule -->
<g id="edge2" class="edge">
<title>ForgotPasswordPageRoutingModule&#45;&gt;ForgotPasswordPageModule</title>
<path fill="none" stroke="black" d="M268.72,-122.11C268.72,-122.11 268.72,-140.99 268.72,-140.99"/>
<polygon fill="black" stroke="black" points="265.22,-140.99 268.72,-150.99 272.22,-140.99 265.22,-140.99"/>
</g>
</g>
</svg>
