<?xml version="1.0" encoding="UTF-8" standalone="no"?>
<!DOCTYPE svg PUBLIC "-//W3C//DTD SVG 1.1//EN"
 "http://www.w3.org/Graphics/SVG/1.1/DTD/svg11.dtd">
<!-- Generated by graphviz version 2.47.0 (20210316.0004)
 -->
<!-- Title: dependencies Pages: 1 -->
<svg width="504pt" height="211pt"
 viewBox="0.00 0.00 504.00 211.00" xmlns="http://www.w3.org/2000/svg" xmlns:xlink="http://www.w3.org/1999/xlink">
<g id="graph0" class="graph" transform="scale(1 1) rotate(0) translate(4 207)">
<title>dependencies</title>
<polygon fill="white" stroke="transparent" points="-4,4 -4,-207 500,-207 500,4 -4,4"/>
<text text-anchor="start" x="227.01" y="-42.4" font-family="Times-12" font-weight="bold" font-size="14.00">Legend</text>
<polygon fill="#ffffb3" stroke="transparent" points="14,-10 14,-30 34,-30 34,-10 14,-10"/>
<text text-anchor="start" x="37.63" y="-15.4" font-family="Times-12" font-size="14.00"> &#160;Declarations</text>
<polygon fill="#8dd3c7" stroke="transparent" points="127,-10 127,-30 147,-30 147,-10 127,-10"/>
<text text-anchor="start" x="150.73" y="-15.4" font-family="Times-12" font-size="14.00"> &#160;Module</text>
<polygon fill="#80b1d3" stroke="transparent" points="213,-10 213,-30 233,-30 233,-10 213,-10"/>
<text text-anchor="start" x="236.78" y="-15.4" font-family="Times-12" font-size="14.00"> &#160;Bootstrap</text>
<polygon fill="#fdb462" stroke="transparent" points="310,-10 310,-30 330,-30 330,-10 310,-10"/>
<text text-anchor="start" x="333.67" y="-15.4" font-family="Times-12" font-size="14.00"> &#160;Providers</text>
<polygon fill="#fb8072" stroke="transparent" points="406,-10 406,-30 426,-30 426,-10 406,-10"/>
<text text-anchor="start" x="429.73" y="-15.4" font-family="Times-12" font-size="14.00"> &#160;Exports</text>
<g id="clust1" class="cluster">
<title>cluster_ShoppingCartPageModule</title>
<polygon fill="none" stroke="black" stroke-dasharray="1,5" points="55,-70 55,-195 441,-195 441,-70 55,-70"/>
</g>
<g id="clust2" class="cluster">
<title>cluster_ShoppingCartPageModule_declarations</title>
<polygon fill="none" stroke="black" points="297,-78 297,-130 433,-130 433,-78 297,-78"/>
</g>
<g id="clust4" class="cluster">
<title>cluster_ShoppingCartPageModule_imports</title>
<polygon fill="none" stroke="black" points="63,-78 63,-130 289,-130 289,-78 63,-78"/>
</g>
<!-- ShoppingCartPage -->
<g id="node1" class="node">
<title>ShoppingCartPage</title>
<polygon fill="#ffffb3" stroke="black" points="425.49,-122 304.51,-122 304.51,-86 425.49,-86 425.49,-122"/>
<text text-anchor="middle" x="365" y="-99.8" font-family="Times,serif" font-size="14.00">ShoppingCartPage</text>
</g>
<!-- ShoppingCartPageModule -->
<g id="node2" class="node">
<title>ShoppingCartPageModule</title>
<polygon fill="#8dd3c7" stroke="black" points="345.04,-187 342.04,-191 321.04,-191 318.04,-187 180.96,-187 180.96,-151 345.04,-151 345.04,-187"/>
<text text-anchor="middle" x="263" y="-164.8" font-family="Times,serif" font-size="14.00">ShoppingCartPageModule</text>
</g>
<!-- ShoppingCartPage&#45;&gt;ShoppingCartPageModule -->
<g id="edge1" class="edge">
<title>ShoppingCartPage&#45;&gt;ShoppingCartPageModule</title>
<path fill="none" stroke="black" d="M324.89,-122.11C324.89,-122.11 324.89,-140.99 324.89,-140.99"/>
<polygon fill="black" stroke="black" points="321.39,-140.99 324.89,-150.99 328.39,-140.99 321.39,-140.99"/>
</g>
<!-- ShoppingCartPageRoutingModule -->
<g id="node3" class="node">
<title>ShoppingCartPageRoutingModule</title>
<polygon fill="#8dd3c7" stroke="black" points="280.66,-122 277.66,-126 256.66,-126 253.66,-122 71.34,-122 71.34,-86 280.66,-86 280.66,-122"/>
<text text-anchor="middle" x="176" y="-99.8" font-family="Times,serif" font-size="14.00">ShoppingCartPageRoutingModule</text>
</g>
<!-- ShoppingCartPageRoutingModule&#45;&gt;ShoppingCartPageModule -->
<g id="edge2" class="edge">
<title>ShoppingCartPageRoutingModule&#45;&gt;ShoppingCartPageModule</title>
<path fill="none" stroke="black" d="M230.78,-122.11C230.78,-122.11 230.78,-140.99 230.78,-140.99"/>
<polygon fill="black" stroke="black" points="227.28,-140.99 230.78,-150.99 234.28,-140.99 227.28,-140.99"/>
</g>
</g>
</svg>
